<svg xmlns="http://www.w3.org/2000/svg" viewBox="0 0 128 128" width="128" height="128"><ellipse cx="64" cy="118" rx="34" ry="8" fill="rgba(0,0,0,.45)"/>
  <g stroke="#0b0f0c" stroke-width="3" stroke-linejoin="round">
    <rect x="46" y="90" width="14" height="24" rx="3" fill="#2b3320" transform="rotate(-9 53 102)"/>
    <rect x="68" y="90" width="14" height="24" rx="3" fill="#2b3320" transform="rotate(11 75 102)"/>
    <path d="M40 56 Q64 44 88 60 L84 96 Q64 104 44 94 Z" fill="#6c4f8c"/>
    <path d="M40 60 L20 72 L24 80 L44 70 Z" fill="#a7b4a0"/>
    <path d="M86 62 L106 70 L102 78 L84 72 Z" fill="#a7b4a0"/>
    <circle cx="62" cy="40" r="17" fill="#a7b4a0"/>
  </g>
  <circle cx="55" cy="38" r="3.4" fill="#c3ff4b"/><circle cx="68" cy="40" r="2.4" fill="#c3ff4b"/>
  <path d="M54 48 L58 51 L62 48 L66 51 L70 48" stroke="#1a1a12" stroke-width="2" fill="none"/>
  <circle cx="84" cy="30" r="10" fill="#b7f34b" opacity=".45"/><circle cx="98" cy="20" r="7" fill="#b7f34b" opacity=".35"/><circle cx="108" cy="12" r="5" fill="#b7f34b" opacity=".25"/></svg>
