<svg xmlns="http://www.w3.org/2000/svg" viewBox="0 0 128 128" width="128" height="128"><ellipse cx="64" cy="118" rx="34" ry="8" fill="rgba(0,0,0,.45)"/>
  <g stroke="#0b0f0c" stroke-width="3" stroke-linejoin="round">
    <rect x="47" y="88" width="13" height="26" rx="3" fill="#0d151b"/>
    <rect x="68" y="88" width="13" height="26" rx="3" fill="#0d151b"/>
    <rect x="40" y="52" width="48" height="42" rx="9" fill="#15222b"/>
    <rect x="31" y="55" width="13" height="30" rx="5" fill="#15222b"/>
    <rect x="84" y="55" width="13" height="30" rx="5" fill="#15222b"/>
    <rect x="31" y="62" width="13" height="9" fill="#facc15"/>
    <circle cx="64" cy="38" r="17" fill="#f1c8a0"/>
  </g>
  <circle cx="58" cy="39" r="2.4" fill="#1b1b1b"/><circle cx="70" cy="39" r="2.4" fill="#1b1b1b"/>
  <path d="M37.5 62.5 L39 66 L42.6 66 L39.8 68.2 L40.8 71.6 L37.5 69.6 L34.2 71.6 L35.2 68.2 L32.4 66 L36 66 Z" fill="#15222b"/>
  <rect x="92" y="52" width="10" height="30" rx="2" fill="#1a2830" stroke="#0b0f0c" stroke-width="3" stroke-linejoin="round"/><rect x="95" y="80" width="5" height="10" fill="#1a2830" stroke="#0b0f0c" stroke-width="3" stroke-linejoin="round"/>
      <rect x="46" y="60" width="36" height="6" fill="#facc15" opacity=".9"/><text x="64" y="84" text-anchor="middle" font-size="11" font-weight="900" fill="#facc15" font-family="sans-serif">SWAT</text>
  <ellipse cx="60" cy="24" rx="22" ry="9" fill="#0e7490" stroke="#0b0f0c" stroke-width="3" stroke-linejoin="round"/><circle cx="73" cy="23" r="4.5" fill="#facc15" stroke="#0b0f0c" stroke-width="3" stroke-linejoin="round"/></svg>
